<svg version="1.1" xmlns="http://www.w3.org/2000/svg" xmlns:xlink="http://www.w3.org/1999/xlink" width="69.26036" height="69.26036" viewBox="0,0,69.26036,69.26036"><defs><linearGradient x1="207.36982" y1="180.00063" x2="272.63018" y2="180.00063" gradientUnits="userSpaceOnUse" id="color-1"><stop offset="0" stop-color="#fb7a50"/><stop offset="1" stop-color="#690000"/></linearGradient><radialGradient cx="240" cy="180.00063" r="26.68866" gradientUnits="userSpaceOnUse" id="color-2"><stop offset="0" stop-color="#e06d41"/><stop offset="1" stop-color="#940000"/></radialGradient></defs><g transform="translate(-205.36982,-145.36982)"><g data-paper-data="{&quot;isPaintingLayer&quot;:true}" fill-rule="nonzero" stroke-linecap="butt" stroke-linejoin="miter" stroke-miterlimit="10" stroke-dasharray="" stroke-dashoffset="0" style="mix-blend-mode: normal"><path d="M272.63018,180c0,17.99142 -14.63719,32.63018 -32.63018,32.63018c-17.9922,0 -32.63018,-14.63876 -32.63018,-32.63018c0,-17.9922 14.63719,-32.63018 32.63018,-32.63018c17.99299,0 32.63018,14.63876 32.63018,32.63018z" fill="url(#color-1)" stroke="#3500ff" stroke-width="4"/><path d="M213.31087,180.00079c0,-14.74 11.94913,-26.68913 26.68913,-26.68913c14.74,0 26.68913,11.94913 26.68913,26.68913c0,14.74 -11.94913,26.68913 -26.68913,26.68913c-14.74,0 -26.68913,-11.94913 -26.68913,-26.68913z" fill="url(#color-2)" stroke="none" stroke-width="1"/><text transform="translate(231.1913,188.88378) scale(0.76999,0.76999)" font-size="40" xml:space="preserve" fill="#000000" fill-rule="nonzero" stroke="none" stroke-width="1" stroke-linecap="butt" stroke-linejoin="miter" stroke-miterlimit="10" stroke-dasharray="" stroke-dashoffset="0" font-family="Sans Serif" font-weight="normal" text-anchor="start" style="mix-blend-mode: normal"><tspan x="0" dy="0">7</tspan></text></g></g></svg>