<svg version="1.1" xmlns="http://www.w3.org/2000/svg" xmlns:xlink="http://www.w3.org/1999/xlink" width="62.33293" height="37.44866" viewBox="0,0,62.33293,37.44866"><defs><linearGradient x1="208.83415" y1="180.00013" x2="271.16639" y2="180.00013" gradientUnits="userSpaceOnUse" id="color-1"><stop offset="0" stop-color="#ffffff"/><stop offset="1" stop-color="#808080"/></linearGradient><linearGradient x1="211.17237" y1="180.00055" x2="268.82826" y2="180.00055" gradientUnits="userSpaceOnUse" id="color-2"><stop offset="0" stop-color="#818181"/><stop offset="1" stop-color="#ffffff"/></linearGradient></defs><g transform="translate(-208.83353,-161.27567)"><g data-paper-data="{&quot;isPaintingLayer&quot;:true}" fill-rule="nonzero" stroke="none" stroke-width="1" stroke-linecap="butt" stroke-linejoin="miter" stroke-miterlimit="10" stroke-dasharray="" stroke-dashoffset="0" style="mix-blend-mode: normal"><path d="M271.16647,192.83017c0,3.25498 -2.63988,5.89416 -5.89416,5.89416h-50.54529c-3.25498,0 -5.89348,-2.63988 -5.89348,-5.89416v-25.66102c0,-3.25498 2.6385,-5.89348 5.89348,-5.89348h50.5446c3.25634,0 5.89416,2.6385 5.89416,5.89348v25.66102z" fill="url(#color-1)"/><path d="M268.82764,167.17018v25.66033c0,1.96039 -1.59392,3.555 -3.55568,3.555h-50.5446c-1.9597,0 -3.555,-1.59461 -3.555,-3.555v-25.66102c0,-1.96039 1.59529,-3.555 3.555,-3.555h50.5446c1.96175,0 3.55568,1.59529 3.55568,3.55568z" fill="url(#color-2)"/><text transform="translate(214.61044,183.25716) scale(0.27143,0.27143)" font-size="40" xml:space="preserve" fill="#385723" fill-rule="nonzero" stroke="none" stroke-width="1" stroke-linecap="butt" stroke-linejoin="miter" stroke-miterlimit="10" stroke-dasharray="" stroke-dashoffset="0" font-family="Sans Serif" font-weight="normal" text-anchor="start" style="mix-blend-mode: normal"><tspan x="0" dy="0">PRÓXIMO</tspan></text></g></g></svg>