<svg version="1.1" xmlns="http://www.w3.org/2000/svg" xmlns:xlink="http://www.w3.org/1999/xlink" width="36.60178" height="30.19664" viewBox="0,0,36.60178,30.19664"><g transform="translate(-221.6991,-164.90167)"><g data-paper-data="{&quot;isPaintingLayer&quot;:true}" fill="#ffe04a" fill-rule="nonzero" stroke="#ffffff" stroke-width="1.15823" stroke-linecap="butt" stroke-linejoin="miter" stroke-miterlimit="10" stroke-dasharray="" stroke-dashoffset="0" style="mix-blend-mode: normal"><path d="M238.99619,189.09995c1.23995,1.23872 1.23995,3.24918 0,4.48886c-1.23937,1.24052 -3.24924,1.24052 -4.48976,0c-4.89446,-4.89453 -11.2985,-11.29882 -11.2985,-11.29882c-1.23962,-1.23937 -1.23962,-3.2495 0,-4.48944c0,0 7.4209,-7.42174 11.38966,-11.38992c1.23962,-1.23995 3.24924,-1.23962 4.48976,0c1.23988,1.23962 1.23988,3.2495 0,4.48944c-4.89453,4.89421 -5.95549,5.9679 -5.95549,5.9679c0,0 15.80318,0.00656 21.41518,0.00656c1.75342,0 3.17473,1.42105 3.17473,3.17447c0,1.7531 -1.42131,3.17473 -3.17473,3.17473c-6.69379,0 -21.43241,-0.00624 -21.43241,-0.00624c0,0 1.91273,1.91247 5.88156,5.88246z"/></g></g></svg>