<svg version="1.1" xmlns="http://www.w3.org/2000/svg" xmlns:xlink="http://www.w3.org/1999/xlink" width="124" height="56.287" viewBox="0,0,124,56.287"><defs><linearGradient x1="180.0001" y1="180.0002" x2="299.9996" y2="180.0002" gradientUnits="userSpaceOnUse" id="color-1"><stop offset="0" stop-color="#f5f5f5"/><stop offset="1" stop-color="#7f7f7f"/></linearGradient><linearGradient x1="184.503" y1="180" x2="295.497" y2="180" gradientUnits="userSpaceOnUse" id="color-2"><stop offset="0" stop-color="#7f7f7f"/><stop offset="1" stop-color="#ffffff"/></linearGradient></defs><g transform="translate(-178,-151.8565)"><g data-paper-data="{&quot;isPaintingLayer&quot;:true}" fill-rule="nonzero" stroke="#3500ff" stroke-linecap="butt" stroke-linejoin="miter" stroke-miterlimit="10" stroke-dasharray="" stroke-dashoffset="0" style="mix-blend-mode: normal"><path d="M300,179.9995c0,14.416 -11.729,26.144 -26.144,26.144h-67.713c-14.415,0 -26.143,-11.727 -26.143,-26.144c0,-14.415 11.727,-26.143 26.143,-26.143h67.713c14.415,0 26.144,11.728 26.144,26.143z" fill="url(#color-1)" stroke-width="4"/><path d="M295.497,179.9995c0,11.952 -9.688,21.641 -21.64,21.641h-67.713c-11.952,0 -21.641,-9.689 -21.641,-21.641v0c0,-11.951 9.689,-21.64 21.641,-21.64h67.713c11.952,0 21.64,9.689 21.64,21.64z" fill="url(#color-2)" stroke-width="0"/><text transform="translate(207.50002,185.76875) scale(0.5,0.5)" font-size="40" xml:space="preserve" fill="#385723" fill-rule="nonzero" stroke="#3500ff" stroke-width="0" stroke-linecap="butt" stroke-linejoin="miter" stroke-miterlimit="10" stroke-dasharray="" stroke-dashoffset="0" font-family="Sans Serif" font-weight="normal" text-anchor="start" style="mix-blend-mode: normal"><tspan x="0" dy="0">Nível 1</tspan></text></g></g></svg>