<svg version="1.1" xmlns="http://www.w3.org/2000/svg" xmlns:xlink="http://www.w3.org/1999/xlink" width="112.01339" height="64.30859" viewBox="0,0,112.01339,64.30859"><g transform="translate(-183.05185,-148.31906)"><g data-paper-data="{&quot;isPaintingLayer&quot;:true}" stroke="none" stroke-linecap="butt" stroke-linejoin="miter" stroke-miterlimit="10" stroke-dasharray="" stroke-dashoffset="0" style="mix-blend-mode: normal"><path d="M215,171.9c-1.5,-0.3 -0.9,-0.2 -1.2,-1.5c-0.3,-1.7 -1.8,-3 -2.2,-4.8c-0.3,-1.5 -0.1,-4.2 0.7,-5.5c1.3,-2.2 2.4,-3.9 4.9,-4.9c1.9,-0.7 3.7,-0.5 5.6,-0.8c2.3,-0.3 4.1,1 6.2,1.7c2.5,0.8 5.3,1.8 7.9,1.9c0.7,0 1.6,0 2.3,-0.3c0.6,-0.3 1,-0.9 1.6,-1.1c1.9,-0.6 4.4,0.4 6.1,-1.1c1.7,-1.5 0.8,-4.1 3,-5.1c0.8,-0.3 1.5,-0.4 2.2,-0.9c0.9,-0.6 1.6,-0.4 2.7,-0.8c2.6,-0.9 4.1,-0.1 6.2,1.3c0.6,0.4 1.2,1 1.8,1.2c0.4,0.2 0.9,0.2 1.2,0.3c1.3,0.6 1.3,0.6 2.1,3.7c0.5,2 -0.1,8 -0.1,8z" fill="#120201" fill-rule="nonzero" stroke-width="1"/><path d="M217.3,173.8c-1.5,-0.3 -0.9,-0.2 -1.2,-1.5c-0.3,-1.7 -1.5,-1.6 -1.8,-3.4c-0.3,-1.5 -1.7,-4 -0.9,-5.4c1.3,-2.2 2,-5.3 4.6,-6.3c1.9,-0.7 3.7,-0.5 5.6,-0.8c2.3,-0.3 4.1,1 6.2,1.7c2.5,0.8 5.3,1.8 7.9,1.9c0.7,0 1.6,0 2.3,-0.3c0.6,-0.3 1,-0.9 1.6,-1.1c1.9,-0.6 4.4,0.4 6.1,-1.1c1.7,-1.5 0.8,-4.1 3,-5.1c0.8,-0.3 1.5,-0.4 2.2,-0.9c0.9,-0.6 1.6,-0.4 2.7,-0.8c2.6,-0.9 4.1,-0.1 6.2,1.3c0.6,0.4 1.2,1 1.8,1.2c0.4,0.2 0.9,0.2 1.2,0.3c1.3,0.6 1.3,0.6 2.1,3.7c0.5,2 -0.1,8 -0.1,8z" fill="#9aa4ab" fill-rule="nonzero" stroke-width="1"/><path d="M247,155.7c0,-0.1 2,2.2 2.9,4.1c0.2,0.3 0.9,1.9 1,2.2c0.5,1.2 1,2.4 1.5,3.8l-17.2,2.9c-0.3,-1 -0.6,-2 -0.9,-3c-0.2,-0.7 -0.4,-1.3 -0.7,-2c0,-0.1 -0.1,-0.1 -0.1,-0.2v-0.1v0c-0.1,-0.3 -0.3,-0.6 -0.4,-0.9c-0.7,-1.6 -1.5,-3.8 -2.5,-5.7c2.1,0.6 4.3,1.3 6.4,1.4c0.7,0 1.6,0 2.3,-0.3c0.6,-0.3 1,-0.9 1.6,-1.1c2,-0.6 4.5,0.4 6.1,-1.1c0,-0.1 0,-0.1 0,0z" fill="none" fill-rule="nonzero" stroke-width="1"/><path d="M235.2,161.3l1.7,7l-22.1,3.7c-0.1,-0.1 -0.2,-0.1 -0.3,-0.1c-0.1,0 -0.1,0 -0.1,0c-0.2,0 -0.3,-0.1 -0.4,-0.1v0c0,-0.1 -0.1,-0.1 -0.1,-0.1v0c-0.1,0 -0.1,-0.1 -0.1,-0.1v0v-0.1v0v-0.1c0,-0.1 0,-0.1 0,-0.2v0c1.2,-0.9 2.4,-1.6 3.6,-2.4c-0.9,-1.5 -2,-2.8 -3.3,-4c-0.8,-0.8 -1.6,-1.8 -2.5,-2.6c0.1,-0.4 0.2,-0.8 0.3,-1.1c1.1,0.9 2,2 3,2.9c1.3,1.2 2.5,2.6 3.4,4.2c0.6,-0.4 1.2,-0.8 1.8,-1.1c-1.4,-3.6 -3.3,-7 -5.6,-10.1c0.2,-0.3 0.4,-0.5 0.7,-0.7c2.4,3.2 4.3,6.6 5.8,10.3c0.2,-0.1 0.4,-0.2 0.6,-0.3c0.6,-0.4 1.3,-0.7 1.9,-1c-1,-3.7 -2.2,-7.4 -4.2,-10.6c0.4,-0.1 0.7,-0.1 1.1,-0.1c1.9,3.2 3,6.7 4,10.3c1.4,-0.6 2.7,-1.2 4.1,-1.7c-0.8,-3.1 -2.1,-6 -3.9,-8.7c0.5,0.1 1,0.2 1.5,0.4c1.5,2.5 2.6,5.1 3.4,7.9c0.3,-0.1 5.6,-1.5 5.7,-1.5z" fill="#ffffff" fill-rule="nonzero" stroke-width="1"/><path d="M247.7,166.5l-3.4,0.4l-2.2,0.4l-3.7,0.6l-1.3,0.2l-1.7,-7c0,0 -0.9,-2.4 -1.4,-3.6c0.4,0.1 0.7,0.1 1,0.2c0.5,1.1 0.9,2.1 1.3,3.2c1.3,-0.3 2.6,-0.5 3.9,-0.7c-0.3,-0.8 -0.6,-1.7 -0.9,-2.5v0c0.2,-0.1 0.4,-0.2 0.6,-0.4c0.3,1 0.7,1.9 1,2.9c0.1,0 0.1,0 0.2,0c1.4,-0.2 2.7,-0.3 4,-0.4c-0.3,-1.1 -0.7,-2.2 -1.1,-3.3c0.2,0 0.5,0 0.8,0c0.4,1.1 0.8,2.2 1.1,3.3z" fill="#ffffff" fill-rule="nonzero" stroke-width="1"/><path d="M266.3,162.8v0c0,0.1 0,0.2 0,0.3v0c0,0.1 -18.5,3.4 -18.5,3.4l-1.8,-6.8c0.3,0 5.3,0 5.6,0c-0.7,-2.7 -1.8,-5.2 -3,-7.7c0.2,-0.4 0.4,-0.7 0.7,-1c1.5,2.8 2.6,5.7 3.4,8.7c0.8,0 1.6,0.1 2.4,0.2c-0.1,-3.7 -0.7,-7.3 -2.1,-10.7c0.3,-0.1 0.7,-0.1 1,-0.2c1.4,3.5 2,7.3 2.1,11.1c0.9,0.1 1.9,0.3 2.8,0.5c0.2,-4.1 -0.2,-8.3 -1.6,-12.2c0.4,0 0.7,0.1 1.1,0.2c1.3,4 1.6,8.1 1.5,12.3c0.9,0.2 1.8,0.4 2.7,0.7c0.2,-3.7 0,-7.5 -0.9,-11.1c0.4,0.3 0.8,0.6 1.2,0.8c0.8,3.4 0.9,7 0.7,10.6c0.9,0.3 1.8,0.6 2.7,0.9z" fill="#ffffff" fill-rule="nonzero" stroke-width="1"/><g fill-rule="nonzero" stroke-width="1"><path d="M246.1,193.2c-0.6,1 -6.5,4.3 -8.4,5.2c-1,0.4 -2,0.8 -3.1,1.2c-0.7,0.3 -1.2,0.6 -1.6,0.8c-2.1,1 -4.6,1.8 -6.9,2.4c-1.5,0.4 -2,-0.5 -3.9,-1.1c-1.9,-0.6 -3.4,0.7 -5.4,0.3c-0.7,-0.2 -1.5,-0.4 -1.9,-1.1c-0.2,-0.3 -0.4,-1 -0.6,-1.2c-0.6,-0.5 -1,0.1 -1.7,-0.2c-0.6,-0.2 -1.1,-0.9 -1.3,-1.5c-0.2,-1 -0.3,-1.5 -0.3,-2.3c-0.1,-1.1 -0.8,-2 -0.3,-3.2c0.5,-1.3 2.3,-1.9 3.4,-2.3c0.4,-0.2 0.9,-0.4 1.4,-0.5c0.9,-0.8 2.4,-1.3 3.2,-1.6c1.6,-0.7 3.5,-1 5.1,-1.7z" fill="#000600"/><path d="M246,193c-0.6,1 -6.5,4.3 -8.4,5.2c-2.1,1 -4.6,1.8 -6.9,2.4c-1.5,0.4 -3.3,0.7 -3.9,-1.1c-1.9,-0.1 -3.8,0.7 -5.8,0.3c-0.7,-0.2 -1.5,-0.4 -1.9,-1.1c-0.2,-0.3 0,-1 -0.2,-1.2c-0.5,-0.6 -1.8,0.1 -2.5,-0.2c-0.6,-0.2 -1.1,-0.9 -1.3,-1.5c-0.2,-0.9 0.5,-1.5 0.5,-2.3c-0.1,-1.1 -1.2,-1.9 -0.7,-3.1c0.5,-1.2 2.7,-1.9 3.8,-2.3c1.6,-0.7 3.5,-1 5.1,-1.7z" fill="#9aa4ab"/><path d="M223.7,186.7l22.1,6.6c-0.3,0.6 -3.3,2.4 -5.5,3.7c-2.1,-0.5 -6.4,-1.9 -6.4,-1.9c-2.7,3 -5.8,5.6 -9.2,7.8c-0.3,-0.1 -0.7,-0.3 -1.1,-0.5c3.4,-2.1 6.4,-4.7 9.2,-7.6c-1.2,-0.3 -2.4,-0.6 -3.6,-0.9c-1.9,1.6 -3.8,3.2 -5.8,4.6c-1.6,1.2 -3.3,2.4 -5.1,3.5c-0.6,0.1 -1.1,0.1 -1.7,0c-0.1,-0.1 -0.2,-0.1 -0.3,-0.1c2.3,-1.3 4.5,-2.9 6.5,-4.3c1.8,-1.3 3.5,-2.7 5.1,-4.1c-0.8,-0.2 -1.7,-0.5 -2.6,-0.7c-4.3,2.6 -8.9,4.6 -13.7,6c-0.2,-0.2 -0.3,-0.5 -0.4,-0.8c0,-0.1 0,-0.1 0,-0.1c4.5,-1.3 8.8,-3.1 12.8,-5.4c-1.2,-0.4 -2.5,-0.7 -3.7,-1.1c-3.1,1.1 -6.5,1.6 -9.8,2c0,-0.3 0.1,-0.6 0.2,-0.9c0,-0.1 0.1,-0.1 0.1,-0.2c2.6,-0.4 5.2,-0.8 7.7,-1.5c-1.1,-0.3 -2.3,-0.6 -3.4,-1c0.1,0 0.2,-0.1 0.3,-0.1c0.9,-0.8 3.2,-1.6 3.2,-1.6c0,0 3.6,-1.1 5.1,-1.4z" fill="#ffffff"/></g><path d="M273.9,194.1c-0.7,0.9 -1.2,2 -1.9,3c-1.2,1.6 -2.5,3.2 -3.8,4.7c-1.1,1.3 -2.2,2.6 -3.4,3.9c-1.8,2.2 -3.7,4.6 -6.1,6.3c-2.5,1.8 -1.1,-0.8 -1.5,-1.7c-1.1,0.4 -1.6,1.4 -2.9,0.5c-0.8,-0.5 -1.1,-1.4 -1.1,-2.3c0,-0.9 0.3,-1.2 0.1,-1.9c-0.2,-0.9 -0.6,-1 0,-2c0.3,-0.5 0.4,-1.6 0.3,-1.9c-0.3,-1.1 0.5,-2.2 1.3,-3c1.2,-1.3 0,-2.2 1.9,-2.9c0.2,-0.1 0.5,-0.1 0.7,-0.2c0.5,-1 0.5,-2 1.4,-2.7c0.3,-0.2 0.5,-0.3 0.7,-0.4c1.1,-0.4 2.4,-0.5 3.5,-0.8z" fill="#000600" fill-rule="nonzero" stroke-width="1"/><path d="M274.4,194.1c-0.7,0.9 -1.2,2 -1.9,3c-1.2,1.6 -2.5,3.2 -3.8,4.7c-2.1,2.4 -4.1,5.1 -6.7,6.9c-2.5,1.8 -3.1,-0.3 -4.4,-1.2c-0.8,-0.5 -1.1,-1.4 -1.1,-2.3c0,-0.9 0.3,-1.2 0.1,-1.9c-0.2,-0.9 -0.6,-1 0,-2c0.2,-0.5 0.4,-0.3 0.5,-0.9c0.1,-0.4 -0.1,-0.7 -0.2,-1c-0.3,-1.1 -0.3,-1.3 0.5,-2.1c1.2,-1.3 0.8,-3.1 2.7,-3.8c1.1,-0.4 2.4,-0.5 3.5,-0.8z" fill="#9aa4ab" fill-rule="nonzero" stroke-width="1"/><path d="M268,193.9c0,0.2 -0.1,0.4 -0.1,0.6c0.1,0.1 0.1,0.3 -0.1,0.5v0c-1.5,6.3 -4.8,12.2 -9.2,17.1c-1.2,0.8 -1.4,0.6 -1.4,0c3.9,-4.2 7,-9.2 8.8,-14.6c-3.1,5 -7.2,9.7 -11.8,13.3c-0.3,-0.2 -0.5,-0.5 -0.7,-0.8c4.1,-3.2 7.7,-7.2 10.6,-11.6c-1.3,1.1 -2.7,2.2 -4.1,3.3c-2.1,1.5 -4.4,3.4 -7,4.3c-0.1,-0.4 -0.2,-0.6 0,-1.1c2.8,-1.1 5.4,-3.3 7.6,-5c1.9,-1.5 3.8,-3.1 5.5,-4.8c0.3,-0.6 0.5,-1.1 0.8,-1.6c0.1,-0.1 0.1,-0.2 0.1,-0.3l1.1,0.1c-0.1,0.2 -0.2,0.4 -0.1,0.6z" fill="#ffffff" fill-rule="nonzero" stroke-width="1"/><path d="M270.9,197.4c-0.7,0.9 -1.2,2 -1.9,3c-1.2,1.6 -2.5,3.2 -3.8,4.7c-2.1,2.4 -4.1,5.1 -6.7,6.9c-2.5,1.8 -1.1,-0.8 -1.5,-1.7c-1.1,0.4 -1.6,1.4 -2.9,0.5c-0.8,-0.5 -1.1,-1.4 -1.1,-2.3c0,-0.9 0.3,-1.2 0.1,-1.9c-0.2,-0.9 -0.6,-1 0,-2c0.3,-0.5 0.4,-1.6 0.3,-1.9c-0.3,-1.1 0.5,-2.2 1.3,-3c1.2,-1.3 0,-2.2 1.9,-2.9c1.1,-0.4 2.4,-0.5 3.5,-0.8z" fill="none" fill-rule="evenodd" stroke-width="1"/><g fill-rule="nonzero" stroke-width="1"><path d="M209.6,175.1c3.5,-3.3 8.4,-6.4 12.7,-8.8c6.4,-3.6 12.3,-5.2 19.5,-6.1c13.9,-1.8 26.4,1.3 38,9.4c5.8,4 12.1,7.1 15.1,13.6c1,1.2 -4.1,3.5 -7.2,3.7c2.9,2.9 8,-1.2 7.3,0.1c-1,2.2 -4.3,4.9 -5.3,5.4c-8.7,4.8 -20.5,9.5 -30.5,7.9c-13.7,-2.2 -27.7,-5.2 -41.1,-9.1c-1.9,-0.5 -6.4,-1.9 -6.4,-1.9c-2.4,-1.3 -1.6,-2.8 -3.3,-4.6z" fill="#9aa4ab"/><path d="M279.6,197.1c-1.5,0.6 -3,1.1 -4.5,1.6c-8.1,-3.7 -13.9,-16 -13.4,-24.6c0.2,-4.2 2.5,-7.7 5,-11c0.1,-0.1 0.2,-0.2 0.3,-0.3c3,1.1 6,2.6 8.9,4.3c-4.1,5.2 -7.6,12 -5.8,18.5c1.1,3.9 4.1,7 6.9,9.7c0.7,0.6 1.8,1.3 2.6,1.8z" fill="#ffffff"/><path d="M249.8,159.8c0.2,0.3 11.7,26.9 1.5,37.8c-0.5,0.5 -1.1,0.9 -1.6,1.2c-3.6,-0.7 -7.2,-1.4 -10.8,-2.2c0.5,-5.4 -0.6,-11.7 -1,-15.7c-0.6,-6.5 -2.4,-13 -5,-19c0,0 3.2,-1.1 8.2,-1.7c3,-0.4 5.9,-0.6 8.7,-0.4z" fill="#ffffff"/><g><path d="M276,180.8c-0.1,-2.2 1.5,-4.6 5.4,-4.1c2.5,0.3 3.9,1.6 4,3.1c0.2,1.9 -1.9,4.2 -4.4,4.4c-2.6,0.2 -5,-1.8 -5,-3.4z" fill="#ffffff"/><path d="M279.5,180.9c0.7,-0.4 0.5,-1.8 -0.5,-2.2c0.2,-0.2 0.5,-0.2 0.8,-0.3c3,-0.8 3.9,2.3 2,3.6c-1.4,0.9 -2.9,0.1 -3,-0.8c0.2,0 0.5,-0.1 0.7,-0.3z" fill="#000600"/><path d="M274.2,174.8c2.1,-2.3 5.6,-2.6 8.5,-1.8c0.8,0.2 0.5,1.5 -0.4,1.3c-2.4,-0.7 -5.3,-0.5 -7.1,1.5c-0.5,0.7 -1.5,-0.3 -1,-1z" fill="#9aa4ab"/></g></g><path d="M263.3,191.9c0,0.1 -7.2,3.2 -8.9,3.3c-3.2,0.2 -5,-0.8 -7,-3c-0.4,-0.4 -1.2,-0.6 -1.6,-1.1c-0.5,-0.7 -1,-1.4 -1.1,-2.2c-0.1,-1.3 -0.5,-2.3 -1.1,-3.4c-0.7,-1.3 -0.7,-2.8 -0.8,-4.3c-0.1,-1.5 0.8,-2.2 1.7,-3.4c0.6,-0.7 1.2,-1.8 2.1,-2.1c0.5,-0.2 1.2,0 1.8,-0.1c0.6,-0.1 1.1,-0.6 1.8,-0.5c1.1,0.2 2.1,1.8 2.8,2.5c1.6,1.6 3.2,3.2 4.7,4.8c1.5,1.6 3.6,3.3 5.6,4.1z" fill="#9aa4ab" fill-rule="nonzero" stroke-width="1"/><path d="M263.73333,192.56667v0v0c-1.1,0.8 -2.8,1.3 -4.1,1.8c-1.9,0.7 -3.8,1.6 -5.8,1.7c-3,0.1 -4.7,-1.3 -6.9,-3c-2.5,-1.9 -2.6,-3.3 -3.7,-6.3c-1.1,-2.9 -2.1,-5.6 -0.2,-8.3c1.7,-2.4 3,-3.3 5.9,-3.6c2.6,-0.2 3.5,1.6 5.2,3.4c2.9,2.9 5.6,6.2 9.4,8c0.2,0.1 0.3,0.4 0.3,0.6c0,1.7 0,3.4 0,5.1c0.1,0.2 0.1,0.4 -0.1,0.6zM252.63333,188.46667c2.9,1.1 6,1.8 9.2,2.1c0.2,-0.1 0.3,-0.1 0.5,-0.2c-6.9,-1.6 -13.6,-5.4 -18.3,-10.5c-0.5,1 -0.5,2.1 -0.4,3.1c2.6,2.5 6.1,4.3 9,5.5zM249.33333,176.26667c1.3,1.9 2.9,3.7 4.4,5.1c1.5,1.4 3.1,2.4 4.8,3.1v0c-2.3,-2 -4.6,-4.4 -6.6,-6.7c-0.8,-0.8 -1.7,-1.3 -2.6,-1.5zM244.83333,178.46667c0,0.1 -0.1,0.1 -0.1,0.2c4.6,5 11.1,8.9 17.9,10.4c0,-0.4 0,-0.8 -0.1,-1.1c-3.4,-1 -6.7,-2.7 -9.4,-5.2c-1.8,-1.7 -3.8,-4 -5.4,-6.3c-1.1,0.3 -2.1,0.9 -2.9,2zM246.93333,191.36667c0.2,0.2 0.5,0.3 0.7,0.5c0.3,0.2 0.5,0.4 0.7,0.6c2.5,0.1 4.9,0 7.1,-0.3c1.1,-0.1 2.1,-0.4 3.2,-0.7c-2.8,-0.5 -5.6,-1.3 -8.1,-2.5c-2.1,-0.9 -4.4,-2.2 -6.4,-3.8c0.3,0.9 0.7,1.9 1,2.9c0.6,1.8 0.5,2.1 1.8,3.3zM262.13333,191.96667h-0.1c-1.9,0.7 -3.9,1.3 -5.8,1.6c-2,0.3 -4.1,0.3 -6.2,0.2c0.7,0.4 1.5,0.8 2.5,0.9c2,0.3 3.8,-0.5 5.7,-1.2c1.1,-0.4 2.7,-0.8 3.9,-1.5z" fill="#ffffff" fill-rule="nonzero" stroke-width="1"/><path d="M252.06952,177.56037c2,2.3 4.36781,4.7729 6.66781,6.7729v0c-1.7,-0.7 -3.34713,-1.68424 -4.84713,-3.08424c-1.5,-1.4 -3.12752,-3.2823 -4.42752,-5.1823c0.9,0.2 1.80684,0.69364 2.60684,1.49364z" data-paper-data="{&quot;noHover&quot;:false,&quot;origItem&quot;:[&quot;Path&quot;,{&quot;applyMatrix&quot;:true,&quot;segments&quot;:[[[499,352.2],[1.8,0.4],[2.6,3.8]],[[507.8,362.4],[-3,-2.8],[3,2.8]],[[517.4,368.6],[-3.4,-1.4],[0,0]],[[517.4,368.6],[0,0],[-4.6,-4]],[[504.2,355.2],[4,4.6],[-1.6,-1.6]]],&quot;closed&quot;:true,&quot;fillColor&quot;:[0,0,0,1]}]}" fill="#9aa4ab" fill-rule="nonzero" stroke-width="0.5"/><path d="M247.86567,176.26365c1.6,2.3 3.68433,4.63635 5.48433,6.33635c2.7,2.5 5.90689,4.17467 9.30689,5.17467c0.1,0.3 0.184,0.75411 0.184,1.15411c-6.8,-1.5 -13.38634,-5.4496 -17.98634,-10.4496c0,-0.1 0.10048,-0.10102 0.10048,-0.20102c0.8,-1.1 1.81064,-1.7145 2.91064,-2.0145z" data-paper-data="{&quot;noHover&quot;:false,&quot;origItem&quot;:[&quot;Path&quot;,{&quot;applyMatrix&quot;:true,&quot;segments&quot;:[[[490,356.6],[1.6,-2.2],[0,0.2]],[[489.8,357],[0,-0.2],[9.2,10]],[[525.6,377.8],[-13.6,-3],[0,-0.8]],[[525.4,375.6],[0.2,0.6],[-6.8,-2]],[[506.6,365.2],[5.4,5],[-3.6,-3.4]],[[495.8,352.6],[3.2,4.6],[-2.2,0.6]]],&quot;closed&quot;:true,&quot;fillColor&quot;:[0,0,0,1]}]}" fill="#9aa4ab" fill-rule="nonzero" stroke-width="0.5"/><path d="M243.7514,182.78827c-0.1,-1 -0.09428,-2.11398 0.40572,-3.11398c4.7,5.1 11.39906,8.90164 18.29906,10.50164c-0.2,0.1 -0.21335,0.14988 -0.41335,0.24988c-3.2,-0.3 -6.34778,-0.97606 -9.24778,-2.07606c-2.9,-1.2 -6.44365,-3.06148 -9.04364,-5.56148z" data-paper-data="{&quot;noHover&quot;:false,&quot;origItem&quot;:[&quot;Path&quot;,{&quot;applyMatrix&quot;:true,&quot;segments&quot;:[[[505.6,376.6],[-5.8,-2.4],[5.8,2.2]],[[524,380.8],[-6.4,-0.6],[0.4,-0.2]],[[525,380.4],[-0.4,0.2],[-13.8,-3.2]],[[488.4,359.4],[9.4,10.2],[-1,2]],[[487.6,365.6],[-0.2,-2],[5.2,5]]],&quot;closed&quot;:true,&quot;fillColor&quot;:[0,0,0,1]}]}" fill="#9aa4ab" fill-rule="nonzero" stroke-width="0.5"/><path d="M258.44993,193.30273c-1.9,0.7 -3.7968,1.51467 -5.7968,1.21467c-1,-0.1 -1.80301,-0.51396 -2.50301,-0.91396c2.1,0.1 4.2215,0.05539 6.2215,-0.24461c1.9,-0.3 3.87968,-0.84752 5.77967,-1.54752l0.19745,-0.02246c-1.2,0.7 -2.79882,1.11387 -3.89882,1.51387z" data-paper-data="{&quot;noHover&quot;:false,&quot;origItem&quot;:[&quot;Path&quot;,{&quot;applyMatrix&quot;:true,&quot;segments&quot;:[[[524.6,383.6],[-2.4,1.4],[0,0]],[[524.4,383.6],[0,0],[-3.8,1.4]],[[512.8,386.8],[3.8,-0.6],[-4,0.6]],[[500.4,387.2],[4.2,0.2],[1.4,0.8]],[[505.4,389],[-2,-0.2],[4,0.6]],[[516.8,386.6],[-3.8,1.4],[2.2,-0.8]]],&quot;closed&quot;:true,&quot;fillColor&quot;:[0,0,0,1]}]}" fill="#9aa4ab" fill-rule="nonzero" stroke-width="0.5"/><path d="M245.25038,187.8939c-0.3,-1 -0.69499,-2.01647 -0.99499,-2.91647c2,1.6 4.39403,2.91494 6.49403,3.81494c2.5,1.2 5.29758,2.02469 8.09758,2.52469c-1.1,0.3 -2.10838,0.6147 -3.20838,0.7147c-2.2,0.3 -4.67077,0.40653 -7.17077,0.30653c-0.2,-0.2 -0.40672,-0.40686 -0.70673,-0.60686c-0.2,-0.2 -0.50457,-0.30671 -0.70457,-0.50671c-1.3,-1.2 -1.20617,-1.53082 -1.80617,-3.33083z" data-paper-data="{&quot;noHover&quot;:false,&quot;origItem&quot;:[&quot;Path&quot;,{&quot;applyMatrix&quot;:true,&quot;segments&quot;:[[[494.2,382.4],[-2.6,-2.4],[0.4,0.4]],[[495.6,383.4],[-0.4,-0.4],[0.6,0.4]],[[497,384.6],[-0.4,-0.4],[5,0.2]],[[511.2,384],[-4.4,0.6],[2.2,-0.2]],[[517.6,382.6],[-2.2,0.6],[-5.6,-1]],[[501.4,377.6],[5,2.4],[-4.2,-1.8]],[[488.6,370],[4,3.2],[0.6,1.8]],[[490.6,375.8],[-0.6,-2],[1.2,3.6]]],&quot;closed&quot;:true,&quot;fillColor&quot;:[0,0,0,1]}]}" fill="#9aa4ab" fill-rule="nonzero" stroke-width="0.5"/><g fill-rule="nonzero" stroke-width="1"><path d="M211.8,189.3l-4.1,-0.4v0.1c-3.4,1.4 -6.8,1.9 -9.9,1.8c-1.4,0 -2.1,0.5 -3.1,0c-0.1,0 -0.3,0.1 -0.5,0.1c-1.1,0.2 -1.5,0 -2.5,-0.4c-1.1,-0.5 -3,-0.2 -3.8,-1.3c-1.1,-1.4 -0.9,-0.6 -2.2,-2.4c-0.8,-1.1 -1.5,-3.6 -1.4,-4c0.2,-1.5 0.1,-1.4 -0.8,-2.9c-0.5,-0.8 -0.1,-1.3 -0.4,-2.3c-0.3,-1 0.9,-2.2 0.9,-3.5c0,-1.3 0,-2.7 0.5,-3.5c0.7,-1 2.3,-1.4 2.9,-2.6c1.1,-2.1 2.5,-2.6 4.7,-2c0.9,0.2 2.1,0.2 2.9,-0.1c1,-0.4 1.8,-0.1 2.7,0.5c0.3,0.2 0.6,0.3 0.8,0.5c3.9,0 11.6,4 12.9,3.8c0,0 2.7,0.9 4.1,-0.2c2.7,16.7 -3.7,18.9 -3.7,18.8z" fill="#9aa4ab"/><path d="M216.8,180.2c0,7.7 -4.8,9.1 -4.8,9.1c-0.1,0.1 -0.2,0.1 -0.2,0.1l-4.1,-0.4v0.1c-1.8,0.8 -3.6,1.2 -5.4,1.5c5.7,-6.4 7.6,-14.6 0.4,-22.8c3.8,1.3 7.8,3.1 8.7,2.9c0,0 2,0.6 2.8,0.3c0,0 0.7,-0.6 0.8,-0.6c0,0 1.8,2.1 1.8,9.8z" fill="#120201"/><path d="M210.4,189.1l-2.5,-0.3v0.1c-1.9,0.8 -3.8,1.2 -5.6,1.5c0.8,-1 1.4,-2 2,-3.1c-3.9,1.4 -8,2.5 -12,3.3c-0.1,-0.1 -0.2,-0.1 -0.4,-0.2c-0.6,-0.2 -1.5,-0.2 -2.3,-0.4c2.5,-0.5 5,-1.2 7.4,-1.8c2.7,-0.7 5.4,-1.5 8,-2.4c0.3,-0.8 0.6,-1.6 0.8,-2.5c-3,0.7 -5.9,1.2 -8.9,1.6c-3.8,0.5 -7.6,1 -11.5,1c-0.1,-0.3 -0.3,-0.7 -0.4,-1c4.2,0 8.5,-0.5 12.6,-1.1c2.8,-0.4 5.6,-0.9 8.4,-1.5c0.1,-0.7 0.2,-1.4 0.2,-2.1c-7.1,1.1 -14.4,1.8 -21.6,1.8c0,-0.4 -0.1,-0.6 -0.3,-1c7.3,0 14.7,-0.7 21.9,-1.8c0,-0.5 -0.1,-1 -0.1,-1.5c-7.6,0.7 -15.2,0.2 -22.8,-0.5c0,-0.3 0.2,-0.7 0.3,-1c7.5,0.7 15,1.1 22.4,0.4c-0.1,-0.4 -0.1,-0.7 -0.2,-1.1c-3.8,0 -7.7,-0.3 -11.5,-1c-3.3,-0.5 -6.4,-1.5 -9.5,-2.5c-0.2,0 -0.3,-0.1 -0.5,-0.1c0,-0.3 0.1,-0.6 0.2,-0.9c1.1,0.3 2.2,0.6 3.2,0.9c2.5,0.8 5.2,1.4 7.9,1.8c3.3,0.5 6.6,0.8 9.9,0.8c-0.1,-0.3 -0.1,-0.5 -0.2,-0.7c-2.9,-0.8 -5.7,-1.9 -8.5,-3.2c-2.6,-1.2 -5.8,-2.3 -8.2,-4.2c0.3,-0.3 0.6,-0.5 0.9,-0.6c2.4,1.7 5.5,2.8 7.8,3.9c2.5,1.1 5,2.1 7.6,2.9c-0.6,-1.6 -1.3,-3.2 -2.2,-4.9c3.7,1.1 8.7,2.9 8.7,2.9c0,0 1.3,0.4 2.5,0.4c1.6,5.1 2.2,11.1 0.3,14.9c-0.9,1.7 -2.3,2.7 -3.8,3.2z" fill="#ffffff"/><path d="M194.7,190.8c-0.1,0 -0.3,0.1 -0.5,0.1c-1.1,0.2 -1.5,0 -2.5,-0.4c-1.1,-0.5 -3,-0.2 -3.8,-1.3c-1.1,-1.4 -0.9,-0.6 -2.2,-2.4c-0.8,-1.1 -1.5,-3.6 -1.4,-4c0.2,-1.5 0.1,-1.4 -0.8,-2.9c-0.5,-0.8 -0.1,-1.3 -0.4,-2.3c-0.3,-1 0.9,-2.2 0.9,-3.5c0,-1.3 0,-2.7 0.6,-3.5c0.7,-1 2.3,-1.4 2.9,-2.6c1.1,-2.1 2.5,-2.6 4.7,-2c0.9,0.2 2.1,0.2 2.9,-0.1c1,-0.4 1.8,-0.1 2.7,0.5c0.3,0.2 0.6,0.3 0.8,0.5v0c-0.8,0 -1.4,0.1 -1.8,0.5c0.3,1.6 -3.8,0.4 -4.9,1.2c-0.4,0.3 0,0.9 -0.3,1.1c0,0 -0.9,0.3 -1.3,0.6c-0.7,0.5 -1.3,0.7 -1.8,1.3c-0.5,0.7 -0.9,1.6 -1.4,2.4c-0.4,0.6 0.2,3.3 -0.2,4.2c-1,2.5 -0.1,2.1 0.8,3.6c0.9,1.6 0.5,3.1 2.3,4.1c0.6,0.3 1.1,0.4 1.7,0.9c0.7,0.5 0.3,1.2 0.6,1.8c0.4,0.8 1,1 1.7,1.6c0.3,0.2 0.5,0.4 0.7,0.6z" fill="#120201"/></g><path d="M286.57031,186.5c0,-0.75 0.75,-0.75 0.75,-0.75l0.96734,0.03218c0.22311,0.1443 0.49768,0.33372 0.69387,0.55209c0.0616,-0.27401 0.09308,-0.55551 0.08879,-0.83427c0,0 0,-0.75 0.75,-0.75c0.75,0 0.75,0.75 0.75,0.75c-0.00239,0.21431 -0.01753,0.42921 -0.04455,0.64291c0.2609,-0.51965 0.56082,-1.0194 0.92051,-1.55893c0,0 0.41603,-0.62404 1.04006,-0.20801c0.62404,0.41603 0.20801,1.04006 0.20801,1.04006c-0.64125,0.96187 -1.04826,1.72834 -1.41253,2.82115l0.20931,-0.07258c0,0 0.33541,0.67082 -0.33541,1.00623c-0.67082,0.33541 -1.00623,-0.33541 -1.00623,-0.33541l-0.18846,-0.69536c-0.13168,0.21585 -0.36937,0.35995 -0.64072,0.35995c-0.26446,0 -0.49695,-0.13688 -0.63049,-0.34365l-0.41328,-0.61992c-0.13892,-0.10922 -0.27982,-0.21581 -0.42357,-0.31861l-0.53266,0.03218c0,0 -0.75,0 -0.75,-0.75z" fill="#9aa4ab" fill-rule="nonzero" stroke-width="0.5"/></g></g></svg>